{
.appVersion = "118";
DisplayStrings = (
LfDX,
YX
);
date = "2023-10-03 19:16:30 +0000";
familyName = Pictophil;
featurePrefixes = (
{
automatic = 1;
code = "languagesystem DFLT dflt;\012";
name = Languagesystems;
}
);
fontMaster = (
{
alignmentZones = (
"{703, 16}",
"{626, 16}",
"{451, 16}",
"{0, -15}",
"{-297, -16}"
);
ascender = 703;
capHeight = 626;
descender = -297;
guideLines = (
{
locked = 1;
position = "{848, 684}";
}
);
id = "0C4AAAEE-E751-4C3F-8A9C-F8511AD320D7";
userData = {
GSOffsetHorizontal = 15;
GSOffsetVertical = 10;
};
weightValue = 400;
widthValue = 5;
xHeight = 451;
}
);
glyphs = (
{
glyphname = B;
lastChange = "2023-10-24 03:06:15 +0000";
layers = (
{
layerId = "0C4AAAEE-E751-4C3F-8A9C-F8511AD320D7";
paths = (
{
closed = 1;
nodes = (
"256 97 OFFCURVE",
"324 165 OFFCURVE",
"324 249 CURVE SMOOTH",
"324 333 OFFCURVE",
"256 401 OFFCURVE",
"172 401 CURVE SMOOTH",
"88 401 OFFCURVE",
"20 333 OFFCURVE",
"20 249 CURVE SMOOTH",
"20 165 OFFCURVE",
"88 97 OFFCURVE",
"172 97 CURVE SMOOTH"
);
}
);
width = 344;
}
);
note = B;
unicode = 0042;
},
{
glyphname = C;
lastChange = "2023-10-24 03:03:54 +0000";
layers = (
{
layerId = "0C4AAAEE-E751-4C3F-8A9C-F8511AD320D7";
paths = (
{
closed = 1;
nodes = (
"20 402 LINE",
"20 402 OFFCURVE",
"270 402 OFFCURVE",
"270 402 CURVE",
"270 93 LINE",
"20 93 LINE"
);
},
{
closed = 1;
nodes = (
"242 119 LINE",
"242 376 LINE",
"242 376 OFFCURVE",
"47 376 OFFCURVE",
"47 376 CURVE",
"47 119 LINE"
);
}
);
width = 290;
}
);
note = C;
unicode = 0043;
},
{
glyphname = D;
lastChange = "2023-10-24 03:04:05 +0000";
layers = (
{
layerId = "0C4AAAEE-E751-4C3F-8A9C-F8511AD320D7";
paths = (
{
closed = 1;
nodes = (
"20 402 LINE",
"20 402 OFFCURVE",
"270 402 OFFCURVE",
"270 402 CURVE",
"270 93 LINE",
"20 93 LINE"
);
}
);
width = 290;
}
);
note = D;
unicode = 0044;
},
{
glyphname = F;
lastChange = "2023-10-24 03:21:20 +0000";
layers = (
{
layerId = "0C4AAAEE-E751-4C3F-8A9C-F8511AD320D7";
paths = (
{
closed = 1;
nodes = (
"39 145 LINE",
"103 145 LINE",
"122 116 OFFCURVE",
"152 91 OFFCURVE",
"194 69 CURVE",
"201 69 OFFCURVE",
"210 68 OFFCURVE",
"220 67 CURVE SMOOTH",
"230 66 OFFCURVE",
"240 66 OFFCURVE",
"252 66 CURVE SMOOTH",
"296 66 OFFCURVE",
"326 69 OFFCURVE",
"343 76 CURVE SMOOTH",
"359 82 OFFCURVE",
"366 93 OFFCURVE",
"366 110 CURVE SMOOTH",
"366 112 OFFCURVE",
"366 116 OFFCURVE",
"366 120 CURVE",
"398 123 OFFCURVE",
"413 143 OFFCURVE",
"413 176 CURVE SMOOTH",
"413 188 LINE",
"437 197 OFFCURVE",
"449 217 OFFCURVE",
"449 247 CURVE SMOOTH",
"449 271 LINE",
"587 274 LINE",
"612 274 LINE SMOOTH",
"640 274 OFFCURVE",
"661 278 OFFCURVE",
"675 285 CURVE SMOOTH",
"689 292 OFFCURVE",
"696 304 OFFCURVE",
"696 318 CURVE SMOOTH",
"696 335 OFFCURVE",
"688 347 OFFCURVE",
"673 355 CURVE SMOOTH",
"657 364 OFFCURVE",
"635 367 OFFCURVE",
"603 367 CURVE SMOOTH",
"572 367 LINE",
"423 371 LINE",
"331 422 LINE",
"274 406 OFFCURVE",
"209 379 OFFCURVE",
"134 343 CURVE",
"43 343 LINE",
"28 314 OFFCURVE",
"20 279 OFFCURVE",
"20 240 CURVE SMOOTH",
"20 204 OFFCURVE",
"26 173 OFFCURVE",
"39 145 CURVE"
);
},
{
closed = 1;
nodes = (
"46 190 OFFCURVE",
"42 217 OFFCURVE",
"42 246 CURVE SMOOTH",
"42 272 OFFCURVE",
"47 298 OFFCURVE",
"57 323 CURVE",
"136 322 LINE",
"204 353 OFFCURVE",
"268 379 OFFCURVE",
"327 399 CURVE",
"380 372 LINE",
"313 373 LINE",
"313 355 LINE",
"582 346 LINE",
"599 346 LINE SMOOTH",
"624 346 OFFCURVE",
"642 344 OFFCURVE",
"656 339 CURVE SMOOTH",
"668 335 OFFCURVE",
"674 328 OFFCURVE",
"674 319 CURVE SMOOTH",
"674 311 OFFCURVE",
"667 305 OFFCURVE",
"651 301 CURVE SMOOTH",
"636 297 OFFCURVE",
"613 294 OFFCURVE",
"582 294 CURVE SMOOTH",
"426 294 LINE",
"426 250 LINE SMOOTH",
"426 220 OFFCURVE",
"417 204 OFFCURVE",
"399 204 CURVE SMOOTH",
"391 204 LINE",
"391 184 LINE SMOOTH",
"391 154 OFFCURVE",
"379 139 OFFCURVE",
"355 139 CURVE SMOOTH",
"346 139 LINE",
"346 120 LINE SMOOTH",
"346 106 OFFCURVE",
"340 97 OFFCURVE",
"327 92 CURVE SMOOTH",
"315 87 OFFCURVE",
"292 85 OFFCURVE",
"257 85 CURVE SMOOTH",
"247 85 OFFCURVE",
"238 85 OFFCURVE",
"228 85 CURVE SMOOTH",
"218 86 OFFCURVE",
"209 87 OFFCURVE",
"199 88 CURVE",
"161 110 OFFCURVE",
"133 137 OFFCURVE",
"113 166 CURVE",
"56 166 LINE",
"56 166 LINE"
);
}
);
width = 716;
}
);
note = F;
unicode = 0046;
},
{
glyphname = G;
lastChange = "2023-10-24 03:22:56 +0000";
layers = (
{
layerId = "0C4AAAEE-E751-4C3F-8A9C-F8511AD320D7";
paths = (
{
closed = 1;
nodes = (
"40 148 LINE",
"105 148 LINE",
"127 119 OFFCURVE",
"158 92 OFFCURVE",
"201 69 CURVE",
"217 67 OFFCURVE",
"238 66 OFFCURVE",
"262 66 CURVE SMOOTH",
"308 66 OFFCURVE",
"339 69 OFFCURVE",
"356 76 CURVE SMOOTH",
"373 82 OFFCURVE",
"380 93 OFFCURVE",
"380 112 CURVE SMOOTH",
"380 114 OFFCURVE",
"380 117 OFFCURVE",
"380 122 CURVE",
"413 126 OFFCURVE",
"430 144 OFFCURVE",
"430 176 CURVE SMOOTH",
"430 193 LINE",
"455 203 OFFCURVE",
"467 223 OFFCURVE",
"467 254 CURVE SMOOTH",
"467 281 LINE",
"609 282 LINE",
"636 282 LINE SMOOTH",
"695 282 OFFCURVE",
"723 298 OFFCURVE",
"723 328 CURVE SMOOTH",
"723 362 OFFCURVE",
"691 380 OFFCURVE",
"627 380 CURVE SMOOTH",
"595 380 LINE",
"440 383 LINE",
"344 436 LINE",
"285 419 OFFCURVE",
"217 392 OFFCURVE",
"139 353 CURVE",
"44 353 LINE",
"28 324 OFFCURVE",
"20 288 OFFCURVE",
"20 247 CURVE SMOOTH",
"20 210 OFFCURVE",
"26 177 OFFCURVE",
"40 148 CURVE"
);
}
);
width = 743;
}
);
note = G;
unicode = 0047;
},
{
glyphname = L;
lastChange = "2023-10-13 08:06:30 +0000";
layers = (
{
layerId = "0C4AAAEE-E751-4C3F-8A9C-F8511AD320D7";
paths = (
{
closed = 1;
nodes = (
"191 535 LINE",
"351 252 LINE",
"191 -18 LINE",
"20 252 LINE"
);
}
);
width = 371;
}
);
note = L;
unicode = 004C;
},
{
glyphname = M;
lastChange = "2023-10-13 09:28:27 +0000";
layers = (
{
layerId = "0C4AAAEE-E751-4C3F-8A9C-F8511AD320D7";
paths = (
{
closed = 1;
nodes = (
"191 535 LINE",
"351 252 LINE",
"191 -18 LINE",
"20 252 LINE"
);
},
{
closed = 1;
nodes = (
"191 27 LINE",
"322 249 LINE",
"191 482 LINE",
"50 249 LINE"
);
}
);
width = 371;
}
);
note = L;
unicode = 004D;
},
{
glyphname = N;
lastChange = "2023-10-23 14:09:09 +0000";
layers = (
{
layerId = "0C4AAAEE-E751-4C3F-8A9C-F8511AD320D7";
paths = (
{
closed = 1;
nodes = (
"582 0 LINE",
"582 614 LINE",
"547 614 LINE",
"547 646 LINE",
"452 646 LINE SMOOTH",
"449 673 OFFCURVE",
"439 686 OFFCURVE",
"419 686 CURVE",
"411 686 OFFCURVE",
"405 683 OFFCURVE",
"398 675 CURVE",
"392 667 OFFCURVE",
"388 658 OFFCURVE",
"387 646 CURVE SMOOTH",
"309 646 LINE SMOOTH",
"307 673 OFFCURVE",
"296 686 OFFCURVE",
"277 686 CURVE",
"269 686 OFFCURVE",
"262 683 OFFCURVE",
"255 675 CURVE",
"249 667 OFFCURVE",
"246 658 OFFCURVE",
"245 646 CURVE SMOOTH",
"169 646 LINE SMOOTH",
"167 673 OFFCURVE",
"156 686 OFFCURVE",
"138 686 CURVE",
"130 686 OFFCURVE",
"123 683 OFFCURVE",
"117 675 CURVE",
"110 667 OFFCURVE",
"107 658 OFFCURVE",
"106 646 CURVE SMOOTH",
"20 646 LINE",
"20 33 LINE",
"54 33 LINE",
"54 0 LINE",
"582 0 LINE"
);
},
{
closed = 1;
nodes = (
"566 15 LINE",
"70 15 LINE",
"70 33 LINE",
"547 33 LINE",
"547 598 LINE",
"566 598 LINE",
"566 15 LINE"
);
},
{
closed = 1;
nodes = (
"532 48 LINE",
"35 48 LINE",
"35 629 LINE",
"106 629 LINE SMOOTH",
"110 607 OFFCURVE",
"121 595 OFFCURVE",
"138 595 CURVE",
"147 595 OFFCURVE",
"152 599 OFFCURVE",
"152 607 CURVE",
"152 610 OFFCURVE",
"150 613 OFFCURVE",
"145 616 CURVE",
"142 619 OFFCURVE",
"139 623 OFFCURVE",
"138 629 CURVE SMOOTH",
"246 629 LINE SMOOTH",
"250 607 OFFCURVE",
"260 595 OFFCURVE",
"277 595 CURVE",
"286 595 OFFCURVE",
"290 599 OFFCURVE",
"290 607 CURVE",
"290 610 OFFCURVE",
"289 613 OFFCURVE",
"284 616 CURVE",
"281 619 OFFCURVE",
"278 623 OFFCURVE",
"278 629 CURVE SMOOTH",
"388 629 LINE SMOOTH",
"393 607 OFFCURVE",
"403 595 OFFCURVE",
"419 595 CURVE",
"430 595 OFFCURVE",
"434 599 OFFCURVE",
"434 607 CURVE",
"434 610 OFFCURVE",
"432 613 OFFCURVE",
"428 616 CURVE",
"423 619 OFFCURVE",
"421 623 OFFCURVE",
"420 629 CURVE SMOOTH",
"532 629 LINE",
"532 48 LINE"
);
}
);
width = 602;
}
);
note = N;
unicode = 004E;
},
{
glyphname = X;
lastChange = "2025-07-04 11:04:32 +0000";
layers = (
{
layerId = "0C4AAAEE-E751-4C3F-8A9C-F8511AD320D7";
paths = (
{
closed = 1;
nodes = (
"246 390 OFFCURVE",
"194 443 OFFCURVE",
"194 509 CURVE SMOOTH",
"194 574 OFFCURVE",
"246 627 OFFCURVE",
"312 627 CURVE SMOOTH",
"378 627 OFFCURVE",
"430 574 OFFCURVE",
"430 509 CURVE SMOOTH",
"430 443 OFFCURVE",
"378 390 OFFCURVE",
"312 390 CURVE SMOOTH"
);
},
{
closed = 1;
nodes = (
"120 412 OFFCURVE",
"185 335 OFFCURVE",
"272 317 CURVE",
"272 225 LINE",
"171 225 LINE",
"171 154 LINE",
"272 154 LINE",
"272 -9 LINE",
"351 -9 LINE",
"351 154 LINE",
"449 154 LINE",
"449 225 LINE",
"351 225 LINE",
"351 317 LINE",
"439 335 OFFCURVE",
"504 412 OFFCURVE",
"504 505 CURVE SMOOTH",
"504 612 OFFCURVE",
"419 697 OFFCURVE",
"312 697 CURVE SMOOTH",
"206 697 OFFCURVE",
"120 612 OFFCURVE",
"120 505 CURVE SMOOTH"
);
}
);
width = 624;
}
);
note = X;
unicode = 0058;
},
{
glyphname = Y;
lastChange = "2025-07-04 11:05:36 +0000";
layers = (
{
components = (
{
name = A;
transform = "{1, 0, 0, 1, 95, 0}";
}
);
layerId = "0C4AAAEE-E751-4C3F-8A9C-F8511AD320D7";
paths = (
{
closed = 1;
nodes = (
"518 10 OFFCURVE",
"633 124 OFFCURVE",
"633 265 CURVE SMOOTH",
"633 323 OFFCURVE",
"614 376 OFFCURVE",
"582 419 CURVE",
"683 537 LINE",
"689 380 LINE",
"760 381 LINE",
"757 611 LINE",
"756 672 LINE",
"705 671 LINE",
"490 672 LINE",
"488 601 LINE",
"631 599 LINE",
"517 479 LINE",
"477 506 OFFCURVE",
"428 522 OFFCURVE",
"376 522 CURVE SMOOTH",
"234 522 OFFCURVE",
"120 408 OFFCURVE",
"120 265 CURVE SMOOTH",
"120 124 OFFCURVE",
"234 10 OFFCURVE",
"376 10 CURVE SMOOTH"
);
},
{
closed = 1;
nodes = (
"219 359 OFFCURVE",
"287 427 OFFCURVE",
"376 427 CURVE SMOOTH",
"463 427 OFFCURVE",
"534 359 OFFCURVE",
"534 271 CURVE SMOOTH",
"534 182 OFFCURVE",
"463 113 OFFCURVE",
"376 113 CURVE SMOOTH",
"287 113 OFFCURVE",
"219 182 OFFCURVE",
"219 271 CURVE SMOOTH"
);
}
);
width = 880;
}
);
note = Y;
unicode = 0059;
},
{
glyphname = a;
lastChange = "2023-10-06 14:02:34 +0000";
layers = (
{
layerId = "0C4AAAEE-E751-4C3F-8A9C-F8511AD320D7";
paths = (
{
closed = 1;
nodes = (
"155 191 OFFCURVE",
"130 204 OFFCURVE",
"106 217 CURVE",
"83 229 OFFCURVE",
"68 244 OFFCURVE",
"59 261 CURVE SMOOTH",
"48 282 OFFCURVE",
"44 312 OFFCURVE",
"44 352 CURVE SMOOTH",
"44 395 OFFCURVE",
"51 427 OFFCURVE",
"64 449 CURVE",
"77 427 LINE",
"74 420 OFFCURVE",
"74 412 OFFCURVE",
"74 405 CURVE SMOOTH",
"74 369 OFFCURVE",
"101 325 OFFCURVE",
"154 272 CURVE SMOOTH",
"207 219 OFFCURVE",
"250 193 OFFCURVE",
"284 193 CURVE SMOOTH",
"337 193 OFFCURVE",
"375 239 OFFCURVE",
"401 333 CURVE SMOOTH",
"417 387 OFFCURVE",
"425 422 OFFCURVE",
"425 435 CURVE SMOOTH",
"425 454 OFFCURVE",
"421 472 OFFCURVE",
"413 490 CURVE",
"417 509 LINE",
"433 469 OFFCURVE",
"454 432 OFFCURVE",
"483 398 CURVE",
"475 373 OFFCURVE",
"469 353 OFFCURVE",
"465 340 CURVE",
"429 323 OFFCURVE",
"410 265 OFFCURVE",
"410 165 CURVE SMOOTH",
"410 111 OFFCURVE",
"415 72 OFFCURVE",
"424 48 CURVE SMOOTH",
"439 9 OFFCURVE",
"468 -10 OFFCURVE",
"511 -10 CURVE SMOOTH",
"541 -10 OFFCURVE",
"577 0 OFFCURVE",
"617 21 CURVE SMOOTH",
"659 41 OFFCURVE",
"682 53 OFFCURVE",
"685 56 CURVE SMOOTH",
"708 72 OFFCURVE",
"725 93 OFFCURVE",
"734 117 CURVE",
"741 121 OFFCURVE",
"750 126 OFFCURVE",
"763 132 CURVE",
"769 102 OFFCURVE",
"771 74 OFFCURVE",
"771 50 CURVE SMOOTH",
"771 12 OFFCURVE",
"745 -25 OFFCURVE",
"695 -61 CURVE",
"728 -43 LINE",
"728 -78 LINE",
"754 -45 OFFCURVE",
"768 -26 OFFCURVE",
"771 -21 CURVE SMOOTH",
"786 3 OFFCURVE",
"793 24 OFFCURVE",
"793 45 CURVE SMOOTH",
"793 71 OFFCURVE",
"791 104 OFFCURVE",
"785 143 CURVE",
"802 151 OFFCURVE",
"816 164 OFFCURVE",
"827 181 CURVE SMOOTH",
"839 200 OFFCURVE",
"845 218 OFFCURVE",
"845 238 CURVE SMOOTH",
"845 274 OFFCURVE",
"832 301 OFFCURVE",
"806 317 CURVE",
"778 329 OFFCURVE",
"751 341 OFFCURVE",
"724 353 CURVE SMOOTH",
"701 363 OFFCURVE",
"682 378 OFFCURVE",
"662 399 CURVE SMOOTH",
"650 411 OFFCURVE",
"635 432 OFFCURVE",
"615 462 CURVE SMOOTH",
"604 477 OFFCURVE",
"590 485 OFFCURVE",
"575 485 CURVE SMOOTH",
"562 485 OFFCURVE",
"548 479 OFFCURVE",
"531 466 CURVE SMOOTH",
"517 455 OFFCURVE",
"506 442 OFFCURVE",
"497 428 CURVE",
"483 441 OFFCURVE",
"469 459 OFFCURVE",
"456 483 CURVE SMOOTH",
"449 494 OFFCURVE",
"439 514 OFFCURVE",
"425 546 CURVE",
"426 556 OFFCURVE",
"427 566 OFFCURVE",
"427 575 CURVE SMOOTH",
"427 648 OFFCURVE",
"400 684 OFFCURVE",
"344 684 CURVE SMOOTH",
"324 684 OFFCURVE",
"296 673 OFFCURVE",
"261 653 CURVE SMOOTH",
"225 631 OFFCURVE",
"190 621 OFFCURVE",
"157 621 CURVE SMOOTH",
"148 621 OFFCURVE",
"135 622 OFFCURVE",
"117 625 CURVE SMOOTH",
"99 626 OFFCURVE",
"86 627 OFFCURVE",
"77 627 CURVE SMOOTH",
"48 627 OFFCURVE",
"33 601 OFFCURVE",
"33 548 CURVE SMOOTH",
"33 522 OFFCURVE",
"40 495 OFFCURVE",
"53 470 CURVE",
"41 464 OFFCURVE",
"32 442 OFFCURVE",
"27 402 CURVE SMOOTH",
"22 374 OFFCURVE",
"20 347 OFFCURVE",
"20 319 CURVE SMOOTH",
"20 280 OFFCURVE",
"37 242 OFFCURVE",
"71 206 CURVE SMOOTH",
"100 177 OFFCURVE",
"135 155 OFFCURVE",
"175 139 CURVE",
"158 170 LINE",
"181 178 LINE",
"181 178 LINE"
);
},
{
closed = 1;
nodes = (
"833 213 OFFCURVE",
"822 190 OFFCURVE",
"802 169 CURVE",
"772 150 OFFCURVE",
"747 136 OFFCURVE",
"728 129 CURVE",
"717 98 OFFCURVE",
"686 69 OFFCURVE",
"634 41 CURVE SMOOTH",
"586 16 OFFCURVE",
"545 3 OFFCURVE",
"511 3 CURVE SMOOTH",
"474 3 OFFCURVE",
"448 21 OFFCURVE",
"435 56 CURVE SMOOTH",
"426 79 OFFCURVE",
"422 114 OFFCURVE",
"422 162 CURVE SMOOTH",
"422 206 OFFCURVE",
"424 238 OFFCURVE",
"428 259 CURVE SMOOTH",
"435 300 OFFCURVE",
"452 325 OFFCURVE",
"478 331 CURVE",
"493 387 OFFCURVE",
"506 421 OFFCURVE",
"516 434 CURVE SMOOTH",
"540 459 OFFCURVE",
"558 472 OFFCURVE",
"575 472 CURVE SMOOTH",
"587 472 OFFCURVE",
"596 467 OFFCURVE",
"604 455 CURVE SMOOTH",
"627 422 OFFCURVE",
"644 400 OFFCURVE",
"654 389 CURVE SMOOTH",
"674 367 OFFCURVE",
"696 351 OFFCURVE",
"719 340 CURVE SMOOTH",
"744 331 OFFCURVE",
"770 320 OFFCURVE",
"795 309 CURVE",
"821 294 OFFCURVE",
"833 270 OFFCURVE",
"833 238 CURVE",
"833 238 LINE"
);
},
{
closed = 1;
nodes = (
"418 568 OFFCURVE",
"417 554 OFFCURVE",
"412 536 CURVE SMOOTH",
"405 513 OFFCURVE",
"402 499 OFFCURVE",
"401 493 CURVE",
"409 478 OFFCURVE",
"413 462 OFFCURVE",
"413 443 CURVE SMOOTH",
"413 425 OFFCURVE",
"404 390 OFFCURVE",
"390 336 CURVE SMOOTH",
"367 250 OFFCURVE",
"331 206 OFFCURVE",
"284 206 CURVE SMOOTH",
"254 206 OFFCURVE",
"213 232 OFFCURVE",
"162 282 CURVE SMOOTH",
"110 332 OFFCURVE",
"85 373 OFFCURVE",
"85 405 CURVE SMOOTH",
"85 414 OFFCURVE",
"88 423 OFFCURVE",
"91 430 CURVE",
"73 462 OFFCURVE",
"61 482 OFFCURVE",
"59 489 CURVE SMOOTH",
"49 509 OFFCURVE",
"45 530 OFFCURVE",
"45 554 CURVE SMOOTH",
"45 594 OFFCURVE",
"57 614 OFFCURVE",
"78 614 CURVE SMOOTH",
"88 614 OFFCURVE",
"101 613 OFFCURVE",
"118 612 CURVE SMOOTH",
"136 609 OFFCURVE",
"149 608 OFFCURVE",
"157 608 CURVE SMOOTH",
"192 608 OFFCURVE",
"228 619 OFFCURVE",
"263 640 CURVE SMOOTH",
"301 660 OFFCURVE",
"327 671 OFFCURVE",
"343 671 CURVE SMOOTH",
"366 671 OFFCURVE",
"385 662 OFFCURVE",
"399 644 CURVE SMOOTH",
"412 626 OFFCURVE",
"418 606 OFFCURVE",
"418 579 CURVE",
"418 579 LINE"
);
},
{
closed = 1;
nodes = (
"739 203 OFFCURVE",
"730 216 OFFCURVE",
"713 232 CURVE SMOOTH",
"696 247 OFFCURVE",
"682 256 OFFCURVE",
"672 256 CURVE SMOOTH",
"666 256 OFFCURVE",
"664 253 OFFCURVE",
"664 248 CURVE SMOOTH",
"664 242 OFFCURVE",
"673 230 OFFCURVE",
"693 213 CURVE SMOOTH",
"712 195 OFFCURVE",
"725 186 OFFCURVE",
"730 186 CURVE SMOOTH",
"737 186 OFFCURVE",
"739 188 OFFCURVE",
"739 193 CURVE",
"739 193 LINE"
);
},
{
closed = 1;
nodes = (
"600 308 OFFCURVE",
"592 319 OFFCURVE",
"576 332 CURVE SMOOTH",
"562 345 OFFCURVE",
"549 352 OFFCURVE",
"538 352 CURVE SMOOTH",
"527 352 OFFCURVE",
"522 349 OFFCURVE",
"522 342 CURVE",
"526 338 OFFCURVE",
"537 327 OFFCURVE",
"557 312 CURVE SMOOTH",
"576 296 OFFCURVE",
"588 288 OFFCURVE",
"589 288 CURVE SMOOTH",
"596 288 OFFCURVE",
"600 291 OFFCURVE",
"600 296 CURVE",
"600 296 LINE"
);
},
{
closed = 1;
nodes = (
"573 253 OFFCURVE",
"553 230 OFFCURVE",
"539 216 CURVE",
"575 225 OFFCURVE",
"595 247 OFFCURVE",
"600 284 CURVE",
"600 284 LINE"
);
},
{
closed = 1;
nodes = (
"665 102 OFFCURVE",
"658 111 OFFCURVE",
"652 121 CURVE",
"651 123 OFFCURVE",
"647 133 OFFCURVE",
"639 152 CURVE",
"639 119 OFFCURVE",
"648 99 OFFCURVE",
"665 92 CURVE",
"672 94 LINE",
"672 94 LINE"
);
},
{
closed = 1;
nodes = (
"592 153 OFFCURVE",
"589 158 OFFCURVE",
"585 161 CURVE SMOOTH",
"578 165 OFFCURVE",
"573 167 OFFCURVE",
"570 167 CURVE",
"567 165 LINE",
"566 164 LINE",
"566 160 OFFCURVE",
"569 156 OFFCURVE",
"575 153 CURVE SMOOTH",
"580 149 OFFCURVE",
"585 147 OFFCURVE",
"588 147 CURVE",
"592 149 LINE",
"592 149 LINE",
"592 149 LINE"
);
},
{
closed = 1;
nodes = (
"546 181 OFFCURVE",
"543 185 OFFCURVE",
"536 190 CURVE SMOOTH",
"528 195 OFFCURVE",
"523 197 OFFCURVE",
"519 197 CURVE",
"517 195 LINE",
"517 192 OFFCURVE",
"521 188 OFFCURVE",
"527 183 CURVE SMOOTH",
"536 178 OFFCURVE",
"541 176 OFFCURVE",
"545 176 CURVE",
"546 177 LINE",
"546 177 LINE"
);
},
{
closed = 1;
nodes = (
"505 240 OFFCURVE",
"497 241 OFFCURVE",
"491 241 CURVE SMOOTH",
"470 241 OFFCURVE",
"457 242 OFFCURVE",
"452 246 CURVE",
"453 234 LINE",
"462 232 OFFCURVE",
"470 230 OFFCURVE",
"475 230 CURVE SMOOTH",
"489 230 OFFCURVE",
"501 233 OFFCURVE",
"512 239 CURVE",
"512 239 LINE"
);
},
{
closed = 1;
nodes = (
"618 107 OFFCURVE",
"608 104 OFFCURVE",
"597 104 CURVE SMOOTH",
"568 104 OFFCURVE",
"542 114 OFFCURVE",
"521 135 CURVE SMOOTH",
"498 154 OFFCURVE",
"484 179 OFFCURVE",
"479 210 CURVE",
"479 205 OFFCURVE",
"478 197 OFFCURVE",
"474 185 CURVE SMOOTH",
"470 174 OFFCURVE",
"469 166 OFFCURVE",
"469 159 CURVE SMOOTH",
"469 128 OFFCURVE",
"472 104 OFFCURVE",
"478 90 CURVE SMOOTH",
"486 67 OFFCURVE",
"503 55 OFFCURVE",
"528 55 CURVE SMOOTH",
"575 55 OFFCURVE",
"606 74 OFFCURVE",
"623 112 CURVE",
"623 112 LINE"
);
},
{
closed = 1;
nodes = (
"360 546 OFFCURVE",
"349 549 OFFCURVE",
"326 549 CURVE SMOOTH",
"316 549 OFFCURVE",
"304 548 OFFCURVE",
"292 545 CURVE SMOOTH",
"275 541 OFFCURVE",
"266 534 OFFCURVE",
"266 527 CURVE SMOOTH",
"266 522 OFFCURVE",
"277 519 OFFCURVE",
"297 519 CURVE SMOOTH",
"339 519 OFFCURVE",
"360 525 OFFCURVE",
"360 537 CURVE",
"360 537 LINE"
);
},
{
closed = 1;
nodes = (
"288 421 OFFCURVE",
"285 423 OFFCURVE",
"279 423 CURVE SMOOTH",
"265 423 OFFCURVE",
"259 419 OFFCURVE",
"259 412 CURVE SMOOTH",
"259 410 OFFCURVE",
"261 408 OFFCURVE",
"267 408 CURVE SMOOTH",
"281 408 OFFCURVE",
"288 411 OFFCURVE",
"288 419 CURVE",
"288 419 LINE"
);
},
{
closed = 1;
nodes = (
"215 474 OFFCURVE",
"210 485 OFFCURVE",
"200 498 CURVE",
"202 486 OFFCURVE",
"202 475 OFFCURVE",
"202 462 CURVE SMOOTH",
"202 452 LINE SMOOTH",
"202 445 OFFCURVE",
"202 435 OFFCURVE",
"202 423 CURVE",
"211 434 OFFCURVE",
"215 448 OFFCURVE",
"215 463 CURVE",
"215 463 LINE"
);
},
{
closed = 1;
nodes = (
"194 510 OFFCURVE",
"179 514 OFFCURVE",
"149 514 CURVE SMOOTH",
"139 514 OFFCURVE",
"130 511 OFFCURVE",
"121 506 CURVE SMOOTH",
"110 499 OFFCURVE",
"106 492 OFFCURVE",
"106 483 CURVE SMOOTH",
"106 479 OFFCURVE",
"107 476 OFFCURVE",
"112 476 CURVE SMOOTH",
"115 476 OFFCURVE",
"125 479 OFFCURVE",
"146 485 CURVE",
"155 485 OFFCURVE",
"165 487 OFFCURVE",
"174 488 CURVE",
"187 490 OFFCURVE",
"194 495 OFFCURVE",
"194 503 CURVE",
"194 503 LINE"
);
},
{
closed = 1;
nodes = (
"240 411 LINE",
"233 413 LINE",
"215 413 OFFCURVE",
"207 410 OFFCURVE",
"206 403 CURVE",
"213 400 LINE",
"230 400 OFFCURVE",
"239 404 OFFCURVE",
"240 411 CURVE"
);
},
{
closed = 1;
nodes = (
"352 346 OFFCURVE",
"330 364 OFFCURVE",
"293 364 CURVE SMOOTH",
"269 364 OFFCURVE",
"247 362 OFFCURVE",
"228 355 CURVE SMOOTH",
"198 346 OFFCURVE",
"184 333 OFFCURVE",
"184 316 CURVE SMOOTH",
"184 313 OFFCURVE",
"184 310 OFFCURVE",
"185 307 CURVE",
"216 335 OFFCURVE",
"238 349 OFFCURVE",
"250 349 CURVE SMOOTH",
"268 349 OFFCURVE",
"305 335 OFFCURVE",
"359 308 CURVE",
"359 308 LINE"
);
}
);
width = 865;
}
);
note = a;
unicode = 0061;
},
{
glyphname = b;
lastChange = "2023-10-06 14:05:11 +0000";
layers = (
{
layerId = "0C4AAAEE-E751-4C3F-8A9C-F8511AD320D7";
paths = (
{
closed = 1;
nodes = (
"834 275 LINE",
"505 356 LINE",
"429 684 LINE",
"348 354 LINE",
"20 278 LINE",
"350 196 LINE",
"426 -131 LINE",
"508 199 LINE",
"834 275 LINE"
);
},
{
closed = 1;
nodes = (
"488 352 LINE",
"430 293 LINE",
"430 603 LINE",
"488 352 LINE"
);
},
{
closed = 1;
nodes = (
"757 274 LINE",
"508 216 LINE",
"449 274 LINE",
"757 274 LINE"
);
},
{
closed = 1;
nodes = (
"406 278 LINE",
"97 278 LINE",
"348 335 LINE",
"406 278 LINE"
);
},
{
closed = 1;
nodes = (
"424 -51 LINE",
"366 200 LINE",
"424 258 LINE",
"424 -51 LINE"
);
}
);
width = 854;
}
);
note = g;
unicode = 0062;
},
{
glyphname = c;
lastChange = "2023-10-06 14:05:23 +0000";
layers = (
{
layerId = "0C4AAAEE-E751-4C3F-8A9C-F8511AD320D7";
paths = (
{
closed = 1;
nodes = (
"343 54 OFFCURVE",
"324 93 OFFCURVE",
"284 123 CURVE SMOOTH",
"284 582 LINE",
"284 610 OFFCURVE",
"273 634 OFFCURVE",
"254 654 CURVE",
"234 673 OFFCURVE",
"210 684 OFFCURVE",
"182 684 CURVE",
"154 684 OFFCURVE",
"130 674 OFFCURVE",
"110 654 CURVE",
"90 634 OFFCURVE",
"80 611 OFFCURVE",
"80 583 CURVE",
"80 123 LINE SMOOTH",
"40 93 OFFCURVE",
"20 54 OFFCURVE",
"20 6 CURVE",
"20 -36 OFFCURVE",
"35 -72 OFFCURVE",
"67 -101 CURVE",
"99 -131 OFFCURVE",
"137 -146 OFFCURVE",
"182 -146 CURVE",
"226 -146 OFFCURVE",
"264 -131 OFFCURVE",
"296 -101 CURVE",
"328 -72 OFFCURVE",
"343 -36 OFFCURVE",
"343 6 CURVE SMOOTH",
"343 6 LINE SMOOTH"
);
},
{
closed = 1;
nodes = (
"264 -10 OFFCURVE",
"256 -29 OFFCURVE",
"240 -44 CURVE",
"224 -59 OFFCURVE",
"204 -66 OFFCURVE",
"182 -66 CURVE",
"159 -66 OFFCURVE",
"139 -59 OFFCURVE",
"123 -44 CURVE",
"107 -29 OFFCURVE",
"99 -10 OFFCURVE",
"99 11 CURVE",
"99 36 OFFCURVE",
"108 55 OFFCURVE",
"130 71 CURVE SMOOTH",
"130 585 LINE",
"130 599 OFFCURVE",
"134 611 OFFCURVE",
"145 622 CURVE",
"156 632 OFFCURVE",
"168 637 OFFCURVE",
"182 637 CURVE",
"196 637 OFFCURVE",
"208 632 OFFCURVE",
"218 621 CURVE",
"229 611 OFFCURVE",
"233 599 OFFCURVE",
"233 585 CURVE",
"233 71 LINE SMOOTH",
"254 55 OFFCURVE",
"264 35 OFFCURVE",
"264 11 CURVE SMOOTH",
"264 11 LINE SMOOTH"
);
},
{
closed = 1;
nodes = (
"218 353 LINE",
"145 353 LINE",
"145 54 LINE SMOOTH",
"129 42 OFFCURVE",
"121 28 OFFCURVE",
"121 11 CURVE",
"121 -5 OFFCURVE",
"127 -19 OFFCURVE",
"139 -29 CURVE",
"151 -40 OFFCURVE",
"164 -46 OFFCURVE",
"182 -46 CURVE",
"198 -46 OFFCURVE",
"212 -40 OFFCURVE",
"224 -29 CURVE",
"236 -19 OFFCURVE",
"242 -5 OFFCURVE",
"242 11 CURVE",
"242 28 OFFCURVE",
"233 42 OFFCURVE",
"218 54 CURVE SMOOTH",
"218 353 LINE"
);
}
);
width = 363;
}
);
note = c;
unicode = 0063;
},
{
glyphname = d;
lastChange = "2023-10-06 14:02:15 +0000";
layers = (
{
layerId = "0C4AAAEE-E751-4C3F-8A9C-F8511AD320D7";
paths = (
{
closed = 1;
nodes = (
"714 428 OFFCURVE",
"711 444 OFFCURVE",
"705 461 CURVE SMOOTH",
"700 480 OFFCURVE",
"692 493 OFFCURVE",
"684 500 CURVE SMOOTH",
"674 505 OFFCURVE",
"659 509 OFFCURVE",
"634 509 CURVE",
"664 524 OFFCURVE",
"680 548 OFFCURVE",
"680 579 CURVE SMOOTH",
"680 602 OFFCURVE",
"673 621 OFFCURVE",
"661 635 CURVE SMOOTH",
"650 650 OFFCURVE",
"635 659 OFFCURVE",
"616 660 CURVE SMOOTH",
"235 684 LINE",
"20 660 LINE",
"20 644 LINE",
"36 644 LINE",
"42 629 OFFCURVE",
"45 610 OFFCURVE",
"45 590 CURVE SMOOTH",
"45 569 OFFCURVE",
"42 552 OFFCURVE",
"36 536 CURVE",
"20 534 LINE",
"20 513 LINE",
"141 488 LINE",
"142 479 OFFCURVE",
"143 472 OFFCURVE",
"143 468 CURVE SMOOTH",
"143 447 OFFCURVE",
"140 427 OFFCURVE",
"134 407 CURVE",
"110 401 LINE",
"110 380 LINE",
"174 350 LINE",
"124 341 OFFCURVE",
"94 334 OFFCURVE",
"85 330 CURVE SMOOTH",
"72 323 OFFCURVE",
"63 318 OFFCURVE",
"60 314 CURVE SMOOTH",
"54 307 OFFCURVE",
"50 295 OFFCURVE",
"49 278 CURVE SMOOTH",
"48 226 OFFCURVE",
"61 188 OFFCURVE",
"88 165 CURVE SMOOTH",
"329 -42 LINE",
"701 147 LINE",
"701 172 LINE",
"682 181 LINE",
"678 200 OFFCURVE",
"674 218 OFFCURVE",
"674 239 CURVE",
"678 256 OFFCURVE",
"680 271 OFFCURVE",
"682 278 CURVE",
"701 284 LINE",
"701 310 LINE",
"678 317 LINE",
"688 323 OFFCURVE",
"695 338 OFFCURVE",
"703 359 CURVE SMOOTH",
"710 379 OFFCURVE",
"714 397 OFFCURVE",
"714 414 CURVE",
"714 414 LINE"
);
},
{
closed = 1;
nodes = (
"693 395 OFFCURVE",
"691 379 OFFCURVE",
"684 364 CURVE SMOOTH",
"680 350 OFFCURVE",
"672 341 OFFCURVE",
"665 340 CURVE SMOOTH",
"421 282 LINE",
"431 316 OFFCURVE",
"435 348 OFFCURVE",
"435 380 CURVE SMOOTH",
"435 409 OFFCURVE",
"431 437 OFFCURVE",
"422 462 CURVE",
"652 490 LINE SMOOTH",
"662 492 OFFCURVE",
"672 484 OFFCURVE",
"681 469 CURVE SMOOTH",
"690 452 OFFCURVE",
"694 435 OFFCURVE",
"694 414 CURVE",
"694 414 LINE"
);
},
{
closed = 1;
nodes = (
"299 564 OFFCURVE",
"292 542 OFFCURVE",
"277 525 CURVE SMOOTH",
"264 509 OFFCURVE",
"246 501 OFFCURVE",
"227 501 CURVE SMOOTH",
"223 501 OFFCURVE",
"220 501 OFFCURVE",
"217 501 CURVE SMOOTH",
"42 530 LINE",
"49 548 OFFCURVE",
"51 569 OFFCURVE",
"51 590 CURVE SMOOTH",
"51 610 OFFCURVE",
"49 630 OFFCURVE",
"42 648 CURVE",
"230 665 LINE SMOOTH",
"250 666 OFFCURVE",
"266 661 OFFCURVE",
"280 648 CURVE SMOOTH",
"294 633 OFFCURVE",
"301 615 OFFCURVE",
"299 590 CURVE",
"299 590 LINE"
);
},
{
closed = 1;
nodes = (
"428 348 OFFCURVE",
"424 316 OFFCURVE",
"414 282 CURVE",
"138 397 LINE",
"146 422 OFFCURVE",
"149 444 OFFCURVE",
"149 465 CURVE SMOOTH",
"149 469 OFFCURVE",
"149 476 OFFCURVE",
"148 484 CURVE",
"233 467 LINE SMOOTH",
"235 467 OFFCURVE",
"239 466 OFFCURVE",
"244 466 CURVE SMOOTH",
"263 466 OFFCURVE",
"296 469 OFFCURVE",
"342 476 CURVE",
"414 462 LINE",
"424 437 OFFCURVE",
"428 409 OFFCURVE",
"428 380 CURVE",
"428 380 LINE"
);
},
{
closed = 1;
nodes = (
"680 168 LINE",
"337 8 LINE",
"331 37 OFFCURVE",
"328 65 OFFCURVE",
"328 95 CURVE SMOOTH",
"328 121 OFFCURVE",
"330 141 OFFCURVE",
"337 160 CURVE",
"675 276 LINE",
"671 258 OFFCURVE",
"669 245 OFFCURVE",
"669 235 CURVE SMOOTH",
"669 212 OFFCURVE",
"672 190 OFFCURVE",
"680 168 CURVE"
);
},
{
closed = 1;
nodes = (
"328 8 LINE",
"95 194 LINE SMOOTH",
"81 207 OFFCURVE",
"72 231 OFFCURVE",
"72 268 CURVE SMOOTH",
"71 294 OFFCURVE",
"79 307 OFFCURVE",
"95 307 CURVE SMOOTH",
"102 307 OFFCURVE",
"108 305 OFFCURVE",
"114 300 CURVE SMOOTH",
"328 160 LINE",
"323 141 OFFCURVE",
"319 121 OFFCURVE",
"319 95 CURVE SMOOTH",
"319 65 OFFCURVE",
"323 37 OFFCURVE",
"328 8 CURVE"
);
}
);
width = 734;
}
);
note = d;
unicode = 0064;
},
{
glyphname = f;
lastChange = "2023-10-07 07:24:48 +0000";
layers = (
{
layerId = "0C4AAAEE-E751-4C3F-8A9C-F8511AD320D7";
paths = (
{
closed = 1;
nodes = (
"615 584 LINE",
"584 669 LINE",
"20 465 LINE",
"51 378 LINE",
"615 584 LINE"
);
},
{
closed = 1;
nodes = (
"655 -8 LINE",
"655 373 LINE",
"52 373 LINE",
"52 -8 LINE",
"655 -8 LINE"
);
},
{
closed = 1;
nodes = (
"581 583 LINE",
"541 568 LINE",
"541 642 LINE",
"581 655 LINE",
"581 583 LINE"
);
},
{
closed = 1;
nodes = (
"500 554 LINE",
"460 539 LINE",
"460 613 LINE",
"500 627 LINE",
"500 554 LINE"
);
},
{
closed = 1;
nodes = (
"419 526 LINE",
"379 511 LINE",
"379 584 LINE",
"419 598 LINE",
"419 526 LINE"
);
},
{
closed = 1;
nodes = (
"645 293 LINE",
"601 293 LINE",
"577 362 LINE",
"619 362 LINE",
"645 293 LINE"
);
},
{
closed = 1;
nodes = (
"557 293 LINE",
"514 293 LINE",
"490 362 LINE",
"532 362 LINE",
"557 293 LINE"
);
},
{
closed = 1;
nodes = (
"339 495 LINE",
"300 480 LINE",
"300 554 LINE",
"339 568 LINE",
"339 495 LINE"
);
},
{
closed = 1;
nodes = (
"473 293 LINE",
"431 293 LINE",
"406 362 LINE",
"448 362 LINE",
"473 293 LINE"
);
},
{
closed = 1;
nodes = (
"256 467 LINE",
"217 452 LINE",
"217 525 LINE",
"256 539 LINE",
"256 467 LINE"
);
},
{
closed = 1;
nodes = (
"387 293 LINE",
"344 293 LINE",
"318 362 LINE",
"361 362 LINE",
"387 293 LINE"
);
},
{
closed = 1;
nodes = (
"179 437 LINE",
"138 422 LINE",
"138 496 LINE",
"179 510 LINE",
"179 437 LINE"
);
},
{
closed = 1;
nodes = (
"301 293 LINE",
"257 293 LINE",
"232 362 LINE",
"276 362 LINE",
"301 293 LINE"
);
},
{
closed = 1;
nodes = (
"96 408 LINE",
"56 393 LINE",
"56 468 LINE",
"96 481 LINE",
"96 408 LINE"
);
},
{
closed = 1;
nodes = (
"214 293 LINE",
"171 293 LINE",
"147 362 LINE",
"189 362 LINE",
"214 293 LINE"
);
},
{
closed = 1;
nodes = (
"130 293 LINE",
"87 293 LINE",
"61 362 LINE",
"103 362 LINE",
"130 293 LINE"
);
}
);
width = 675;
}
);
note = f;
unicode = 0066;
},
{
glyphname = h;
lastChange = "2023-10-06 14:04:01 +0000";
layers = (
{
layerId = "0C4AAAEE-E751-4C3F-8A9C-F8511AD320D7";
paths = (
{
closed = 1;
nodes = (
"816 515 OFFCURVE",
"812 525 OFFCURVE",
"805 534 CURVE SMOOTH",
"797 543 OFFCURVE",
"789 547 OFFCURVE",
"779 547 CURVE SMOOTH",
"768 547 OFFCURVE",
"759 543 OFFCURVE",
"752 534 CURVE SMOOTH",
"744 525 OFFCURVE",
"741 515 OFFCURVE",
"741 503 CURVE SMOOTH",
"741 490 OFFCURVE",
"744 480 OFFCURVE",
"752 472 CURVE SMOOTH",
"759 462 OFFCURVE",
"768 458 OFFCURVE",
"779 458 CURVE SMOOTH",
"789 458 OFFCURVE",
"797 462 OFFCURVE",
"805 472 CURVE SMOOTH",
"812 480 OFFCURVE",
"816 490 OFFCURVE",
"816 503 CURVE",
"816 503 LINE"
);
},
{
closed = 1;
nodes = (
"607 629 OFFCURVE",
"602 642 OFFCURVE",
"593 653 CURVE SMOOTH",
"584 663 OFFCURVE",
"573 668 OFFCURVE",
"560 668 CURVE SMOOTH",
"548 668 OFFCURVE",
"536 663 OFFCURVE",
"527 653 CURVE SMOOTH",
"518 642 OFFCURVE",
"513 629 OFFCURVE",
"513 614 CURVE SMOOTH",
"513 598 OFFCURVE",
"518 585 OFFCURVE",
"527 574 CURVE SMOOTH",
"536 563 OFFCURVE",
"548 558 OFFCURVE",
"560 558 CURVE SMOOTH",
"573 558 OFFCURVE",
"584 563 OFFCURVE",
"593 574 CURVE SMOOTH",
"602 585 OFFCURVE",
"607 598 OFFCURVE",
"607 614 CURVE",
"607 614 LINE"
);
},
{
closed = 1;
nodes = (
"363 644 OFFCURVE",
"359 656 OFFCURVE",
"350 667 CURVE SMOOTH",
"340 679 OFFCURVE",
"330 684 OFFCURVE",
"316 684 CURVE SMOOTH",
"304 684 OFFCURVE",
"293 679 OFFCURVE",
"283 667 CURVE SMOOTH",
"275 656 OFFCURVE",
"270 644 OFFCURVE",
"270 628 CURVE SMOOTH",
"270 612 OFFCURVE",
"275 598 OFFCURVE",
"284 586 CURVE SMOOTH",
"294 573 OFFCURVE",
"304 568 OFFCURVE",
"316 568 CURVE SMOOTH",
"330 568 OFFCURVE",
"340 573 OFFCURVE",
"350 586 CURVE SMOOTH",
"359 598 OFFCURVE",
"363 612 OFFCURVE",
"363 628 CURVE",
"363 628 LINE"
);
},
{
closed = 1;
nodes = (
"901 363 LINE",
"856 435 LINE SMOOTH",
"849 448 OFFCURVE",
"841 454 OFFCURVE",
"830 454 CURVE SMOOTH",
"727 454 LINE SMOOTH",
"711 454 OFFCURVE",
"703 448 OFFCURVE",
"700 435 CURVE SMOOTH",
"686 359 LINE",
"673 493 LINE SMOOTH",
"669 533 OFFCURVE",
"649 552 OFFCURVE",
"615 552 CURVE SMOOTH",
"505 552 LINE SMOOTH",
"469 552 OFFCURVE",
"449 533 OFFCURVE",
"447 493 CURVE SMOOTH",
"440 359 LINE",
"426 509 LINE SMOOTH",
"423 544 OFFCURVE",
"404 562 OFFCURVE",
"371 562 CURVE SMOOTH",
"263 562 LINE SMOOTH",
"224 562 OFFCURVE",
"204 544 OFFCURVE",
"204 509 CURVE SMOOTH",
"204 359 LINE",
"200 388 LINE SMOOTH",
"194 424 OFFCURVE",
"175 443 OFFCURVE",
"144 443 CURVE SMOOTH",
"79 443 LINE SMOOTH",
"41 443 OFFCURVE",
"21 424 OFFCURVE",
"21 389 CURVE SMOOTH",
"21 303 LINE SMOOTH",
"21 288 OFFCURVE",
"27 281 OFFCURVE",
"39 281 CURVE SMOOTH",
"50 281 OFFCURVE",
"55 288 OFFCURVE",
"55 303 CURVE SMOOTH",
"55 389 LINE",
"64 389 LINE",
"64 288 LINE",
"20 177 LINE",
"64 177 LINE",
"64 23 LINE SMOOTH",
"64 7 OFFCURVE",
"71 0 OFFCURVE",
"84 0 CURVE SMOOTH",
"99 0 OFFCURVE",
"106 7 OFFCURVE",
"106 23 CURVE SMOOTH",
"106 177 LINE",
"117 177 LINE",
"117 23 LINE SMOOTH",
"117 7 OFFCURVE",
"124 0 OFFCURVE",
"138 0 CURVE SMOOTH",
"152 0 OFFCURVE",
"159 7 OFFCURVE",
"159 23 CURVE SMOOTH",
"159 177 LINE",
"201 177 LINE",
"159 288 LINE",
"159 389 LINE",
"164 389 LINE",
"187 303 LINE SMOOTH",
"191 288 OFFCURVE",
"198 280 OFFCURVE",
"209 280 CURVE SMOOTH",
"221 280 OFFCURVE",
"228 289 OFFCURVE",
"229 308 CURVE SMOOTH",
"247 481 LINE",
"257 481 LINE",
"257 28 LINE SMOOTH",
"257 9 OFFCURVE",
"266 0 OFFCURVE",
"283 0 CURVE SMOOTH",
"302 0 OFFCURVE",
"310 9 OFFCURVE",
"310 28 CURVE SMOOTH",
"310 296 LINE",
"324 296 LINE",
"324 28 LINE SMOOTH",
"324 9 OFFCURVE",
"333 0 OFFCURVE",
"351 0 CURVE SMOOTH",
"368 0 OFFCURVE",
"377 9 OFFCURVE",
"377 28 CURVE SMOOTH",
"377 481 LINE",
"387 481 LINE",
"414 309 LINE SMOOTH",
"417 290 OFFCURVE",
"425 281 OFFCURVE",
"439 281 CURVE SMOOTH",
"453 281 OFFCURVE",
"461 289 OFFCURVE",
"464 307 CURVE SMOOTH",
"491 493 LINE",
"501 493 LINE",
"501 361 LINE",
"446 222 LINE",
"501 222 LINE",
"501 28 LINE SMOOTH",
"501 9 OFFCURVE",
"510 0 OFFCURVE",
"528 0 CURVE SMOOTH",
"544 0 OFFCURVE",
"554 9 OFFCURVE",
"554 28 CURVE SMOOTH",
"554 222 LINE",
"567 222 LINE",
"567 28 LINE SMOOTH",
"567 9 OFFCURVE",
"577 0 OFFCURVE",
"593 0 CURVE SMOOTH",
"612 0 OFFCURVE",
"620 9 OFFCURVE",
"620 28 CURVE SMOOTH",
"620 222 LINE",
"674 222 LINE",
"620 361 LINE",
"620 493 LINE",
"630 493 LINE",
"664 308 LINE SMOOTH",
"667 290 OFFCURVE",
"674 281 OFFCURVE",
"685 281 CURVE SMOOTH",
"697 281 OFFCURVE",
"703 285 OFFCURVE",
"704 294 CURVE SMOOTH",
"726 399 LINE",
"726 296 LINE",
"712 188 LINE",
"724 188 LINE",
"724 23 LINE SMOOTH",
"724 7 OFFCURVE",
"731 0 OFFCURVE",
"744 0 CURVE SMOOTH",
"759 0 OFFCURVE",
"766 7 OFFCURVE",
"766 23 CURVE SMOOTH",
"766 188 LINE",
"773 188 LINE",
"773 240 LINE",
"784 240 LINE",
"784 188 LINE",
"791 188 LINE",
"791 23 LINE SMOOTH",
"791 7 OFFCURVE",
"798 0 OFFCURVE",
"812 0 CURVE SMOOTH",
"826 0 OFFCURVE",
"834 7 OFFCURVE",
"834 23 CURVE SMOOTH",
"834 188 LINE",
"841 188 LINE",
"841 240 LINE",
"848 251 LINE",
"833 296 LINE",
"833 399 LINE",
"871 347 LINE",
"837 298 LINE",
"850 263 LINE",
"892 319 LINE SMOOTH",
"901 333 OFFCURVE",
"905 343 OFFCURVE",
"905 350 CURVE SMOOTH",
"905 354 OFFCURVE",
"904 359 OFFCURVE",
"901 363 CURVE"
);
},
{
closed = 1;
nodes = (
"193 462 LINE",
"193 474 LINE",
"183 472 LINE",
"183 463 LINE",
"193 462 LINE"
);
},
{
closed = 1;
nodes = (
"185 485 LINE",
"166 485 LINE",
"172 472 LINE",
"172 463 LINE",
"167 452 LINE",
"185 452 LINE",
"179 463 LINE",
"179 472 LINE",
"185 485 LINE"
);
},
{
closed = 1;
nodes = (
"169 463 LINE",
"169 472 LINE",
"155 473 OFFCURVE",
"147 480 OFFCURVE",
"147 494 CURVE SMOOTH",
"147 505 OFFCURVE",
"144 514 OFFCURVE",
"137 522 CURVE SMOOTH",
"130 532 OFFCURVE",
"121 536 OFFCURVE",
"111 536 CURVE SMOOTH",
"101 536 OFFCURVE",
"93 532 OFFCURVE",
"85 522 CURVE SMOOTH",
"78 514 OFFCURVE",
"74 505 OFFCURVE",
"74 494 CURVE SMOOTH",
"74 480 OFFCURVE",
"67 473 OFFCURVE",
"52 472 CURVE",
"52 463 LINE",
"65 463 OFFCURVE",
"73 467 OFFCURVE",
"76 475 CURVE",
"81 456 OFFCURVE",
"93 446 OFFCURVE",
"111 446 CURVE SMOOTH",
"129 446 OFFCURVE",
"140 456 OFFCURVE",
"145 475 CURVE",
"150 467 OFFCURVE",
"157 463 OFFCURVE",
"169 463 CURVE"
);
},
{
closed = 1;
nodes = (
"56 485 LINE",
"37 485 LINE",
"44 472 LINE",
"44 463 LINE",
"38 452 LINE",
"55 452 LINE",
"49 463 LINE",
"49 472 LINE",
"56 485 LINE"
);
},
{
closed = 1;
nodes = (
"40 463 LINE",
"40 472 LINE",
"29 474 LINE",
"29 462 LINE",
"40 463 LINE"
);
}
);
width = 925;
}
);
note = h;
unicode = 0068;
},
{
glyphname = i;
lastChange = "2023-10-12 13:55:11 +0000";
layers = (
{
layerId = "0C4AAAEE-E751-4C3F-8A9C-F8511AD320D7";
paths = (
{
closed = 1;
nodes = (
"896 383 OFFCURVE",
"863 425 OFFCURVE",
"824 460 CURVE SMOOTH",
"729 543 OFFCURVE",
"613 585 OFFCURVE",
"472 585 CURVE SMOOTH",
"333 585 OFFCURVE",
"215 543 OFFCURVE",
"120 460 CURVE SMOOTH",
"81 425 OFFCURVE",
"48 383 OFFCURVE",
"20 334 CURVE",
"48 286 OFFCURVE",
"81 245 OFFCURVE",
"120 210 CURVE SMOOTH",
"215 127 OFFCURVE",
"333 85 OFFCURVE",
"472 85 CURVE SMOOTH",
"613 85 OFFCURVE",
"729 127 OFFCURVE",
"824 210 CURVE SMOOTH",
"863 245 OFFCURVE",
"896 286 OFFCURVE",
"924 334 CURVE",
"924 334 LINE"
);
},
{
closed = 1;
nodes = (
"779 231 OFFCURVE",
"686 169 OFFCURVE",
"559 147 CURVE",
"597 163 OFFCURVE",
"625 188 OFFCURVE",
"648 222 CURVE SMOOTH",
"671 256 OFFCURVE",
"682 293 OFFCURVE",
"682 334 CURVE SMOOTH",
"682 376 OFFCURVE",
"671 414 OFFCURVE",
"648 448 CURVE SMOOTH",
"624 482 OFFCURVE",
"595 506 OFFCURVE",
"557 522 CURVE",
"644 509 OFFCURVE",
"717 472 OFFCURVE",
"776 415 CURVE SMOOTH",
"799 392 OFFCURVE",
"821 366 OFFCURVE",
"837 334 CURVE",
"837 334 LINE"
);
},
{
closed = 1;
nodes = (
"639 290 OFFCURVE",
"622 250 OFFCURVE",
"590 219 CURVE SMOOTH",
"557 187 OFFCURVE",
"518 171 OFFCURVE",
"471 171 CURVE SMOOTH",
"425 171 OFFCURVE",
"387 187 OFFCURVE",
"354 219 CURVE SMOOTH",
"321 250 OFFCURVE",
"305 290 OFFCURVE",
"305 334 CURVE SMOOTH",
"305 355 OFFCURVE",
"309 374 OFFCURVE",
"316 394 CURVE",
"274 407 LINE",
"264 384 OFFCURVE",
"262 359 OFFCURVE",
"262 334 CURVE SMOOTH",
"262 293 OFFCURVE",
"272 256 OFFCURVE",
"295 222 CURVE SMOOTH",
"317 188 OFFCURVE",
"346 163 OFFCURVE",
"383 147 CURVE",
"298 162 OFFCURVE",
"227 198 OFFCURVE",
"168 254 CURVE SMOOTH",
"143 278 OFFCURVE",
"123 304 OFFCURVE",
"106 334 CURVE",
"164 438 OFFCURVE",
"258 501 OFFCURVE",
"386 522 CURVE",
"403 483 LINE",
"424 494 OFFCURVE",
"447 497 OFFCURVE",
"471 497 CURVE SMOOTH",
"518 497 OFFCURVE",
"557 482 OFFCURVE",
"590 450 CURVE SMOOTH",
"622 418 OFFCURVE",
"639 380 OFFCURVE",
"639 334 CURVE",
"639 334 LINE"
);
},
{
closed = 1;
nodes = (
"597 368 OFFCURVE",
"585 397 OFFCURVE",
"561 421 CURVE SMOOTH",
"536 445 OFFCURVE",
"507 458 OFFCURVE",
"471 458 CURVE SMOOTH",
"454 458 OFFCURVE",
"439 454 OFFCURVE",
"422 447 CURVE",
"483 319 LINE",
"353 378 LINE",
"348 365 OFFCURVE",
"345 350 OFFCURVE",
"345 334 CURVE SMOOTH",
"345 301 OFFCURVE",
"358 271 OFFCURVE",
"383 246 CURVE SMOOTH",
"407 222 OFFCURVE",
"437 211 OFFCURVE",
"471 211 CURVE SMOOTH",
"507 211 OFFCURVE",
"536 222 OFFCURVE",
"561 246 CURVE SMOOTH",
"585 271 OFFCURVE",
"597 301 OFFCURVE",
"597 334 CURVE",
"597 334 LINE"
);
}
);
width = 944;
}
);
note = i;
unicode = 0069;
},
{
glyphname = l;
lastChange = "2023-10-06 14:04:44 +0000";
layers = (
{
layerId = "0C4AAAEE-E751-4C3F-8A9C-F8511AD320D7";
paths = (
{
closed = 1;
nodes = (
"749 0 LINE",
"749 339 LINE",
"600 339 LINE",
"600 426 LINE",
"619 409 LINE",
"658 468 LINE",
"544 557 LINE",
"544 680 LINE",
"468 680 LINE",
"468 615 LINE",
"384 680 LINE",
"109 468 LINE",
"149 409 LINE",
"169 426 LINE",
"169 339 LINE",
"20 339 LINE",
"20 0 LINE",
"443 0 LINE SMOOTH",
"443 26 OFFCURVE",
"414 48 OFFCURVE",
"356 64 CURVE SMOOTH",
"303 76 OFFCURVE",
"250 89 OFFCURVE",
"197 101 CURVE",
"140 117 OFFCURVE",
"111 135 OFFCURVE",
"111 160 CURVE",
"111 186 OFFCURVE",
"161 204 OFFCURVE",
"261 213 CURVE SMOOTH",
"356 213 LINE SMOOTH",
"257 201 OFFCURVE",
"207 184 OFFCURVE",
"207 163 CURVE",
"207 151 OFFCURVE",
"248 138 OFFCURVE",
"329 126 CURVE",
"446 108 OFFCURVE",
"521 96 OFFCURVE",
"555 86 CURVE",
"638 65 OFFCURVE",
"677 35 OFFCURVE",
"677 0 CURVE SMOOTH",
"749 0 LINE"
);
},
{
closed = 1;
nodes = (
"639 465 LINE",
"616 433 LINE",
"584 458 LINE",
"584 218 LINE",
"356 218 LINE",
"356 414 LINE",
"261 414 LINE",
"261 218 LINE",
"183 218 LINE",
"183 458 LINE",
"152 433 LINE",
"129 465 LINE",
"384 664 LINE",
"479 589 LINE",
"479 670 LINE",
"531 670 LINE",
"531 550 LINE",
"639 465 LINE"
);
},
{
closed = 1;
nodes = (
"540 296 LINE",
"540 414 LINE",
"413 414 LINE",
"413 296 LINE",
"540 296 LINE"
);
}
);
width = 769;
}
);
note = l;
unicode = 006C;
},
{
glyphname = m;
lastChange = "2023-10-06 14:03:00 +0000";
layers = (
{
layerId = "0C4AAAEE-E751-4C3F-8A9C-F8511AD320D7";
paths = (
{
closed = 1;
nodes = (
"592 266 LINE",
"592 684 LINE",
"222 521 LINE",
"222 141 LINE",
"206 147 OFFCURVE",
"187 151 OFFCURVE",
"165 151 CURVE SMOOTH",
"135 151 OFFCURVE",
"105 144 OFFCURVE",
"75 130 CURVE SMOOTH",
"38 112 OFFCURVE",
"20 90 OFFCURVE",
"20 63 CURVE SMOOTH",
"20 40 OFFCURVE",
"31 24 OFFCURVE",
"56 14 CURVE SMOOTH",
"76 4 OFFCURVE",
"97 0 OFFCURVE",
"122 0 CURVE SMOOTH",
"153 0 OFFCURVE",
"184 9 OFFCURVE",
"213 27 CURVE SMOOTH",
"247 48 OFFCURVE",
"264 71 OFFCURVE",
"264 101 CURVE SMOOTH",
"264 396 LINE",
"549 521 LINE",
"549 308 LINE",
"532 316 OFFCURVE",
"513 318 OFFCURVE",
"491 318 CURVE SMOOTH",
"460 318 OFFCURVE",
"429 311 OFFCURVE",
"401 298 CURVE SMOOTH",
"362 280 OFFCURVE",
"344 258 OFFCURVE",
"344 231 CURVE SMOOTH",
"344 208 OFFCURVE",
"356 193 OFFCURVE",
"381 181 CURVE SMOOTH",
"401 172 OFFCURVE",
"423 168 OFFCURVE",
"447 168 CURVE SMOOTH",
"479 168 OFFCURVE",
"509 176 OFFCURVE",
"540 193 CURVE SMOOTH",
"574 214 OFFCURVE",
"592 237 OFFCURVE",
"592 266 CURVE"
);
}
);
width = 612;
}
);
note = m;
unicode = 006D;
},
{
glyphname = n;
lastChange = "2023-10-06 14:05:51 +0000";
layers = (
{
layerId = "0C4AAAEE-E751-4C3F-8A9C-F8511AD320D7";
paths = (
{
closed = 1;
nodes = (
"582 0 LINE",
"582 614 LINE",
"547 614 LINE",
"547 646 LINE",
"452 646 LINE SMOOTH",
"449 673 OFFCURVE",
"439 686 OFFCURVE",
"419 686 CURVE",
"411 686 OFFCURVE",
"405 683 OFFCURVE",
"398 675 CURVE",
"392 667 OFFCURVE",
"388 658 OFFCURVE",
"387 646 CURVE SMOOTH",
"309 646 LINE SMOOTH",
"307 673 OFFCURVE",
"296 686 OFFCURVE",
"277 686 CURVE",
"269 686 OFFCURVE",
"262 683 OFFCURVE",
"255 675 CURVE",
"249 667 OFFCURVE",
"246 658 OFFCURVE",
"245 646 CURVE SMOOTH",
"169 646 LINE SMOOTH",
"167 673 OFFCURVE",
"156 686 OFFCURVE",
"138 686 CURVE",
"130 686 OFFCURVE",
"123 683 OFFCURVE",
"117 675 CURVE",
"110 667 OFFCURVE",
"107 658 OFFCURVE",
"106 646 CURVE SMOOTH",
"20 646 LINE",
"20 33 LINE",
"54 33 LINE",
"54 0 LINE",
"582 0 LINE"
);
},
{
closed = 1;
nodes = (
"566 15 LINE",
"70 15 LINE",
"70 33 LINE",
"547 33 LINE",
"547 598 LINE",
"566 598 LINE",
"566 15 LINE"
);
},
{
closed = 1;
nodes = (
"532 48 LINE",
"35 48 LINE",
"35 629 LINE",
"106 629 LINE SMOOTH",
"110 607 OFFCURVE",
"121 595 OFFCURVE",
"138 595 CURVE",
"147 595 OFFCURVE",
"152 599 OFFCURVE",
"152 607 CURVE",
"152 610 OFFCURVE",
"150 613 OFFCURVE",
"145 616 CURVE",
"142 619 OFFCURVE",
"139 623 OFFCURVE",
"138 629 CURVE SMOOTH",
"246 629 LINE SMOOTH",
"250 607 OFFCURVE",
"260 595 OFFCURVE",
"277 595 CURVE",
"286 595 OFFCURVE",
"290 599 OFFCURVE",
"290 607 CURVE",
"290 610 OFFCURVE",
"289 613 OFFCURVE",
"284 616 CURVE",
"281 619 OFFCURVE",
"278 623 OFFCURVE",
"278 629 CURVE SMOOTH",
"388 629 LINE SMOOTH",
"393 607 OFFCURVE",
"403 595 OFFCURVE",
"419 595 CURVE",
"430 595 OFFCURVE",
"434 599 OFFCURVE",
"434 607 CURVE",
"434 610 OFFCURVE",
"432 613 OFFCURVE",
"428 616 CURVE",
"423 619 OFFCURVE",
"421 623 OFFCURVE",
"420 629 CURVE SMOOTH",
"532 629 LINE",
"532 48 LINE"
);
}
);
width = 602;
}
);
note = n;
unicode = 006E;
},
{
glyphname = p;
lastChange = "2023-10-06 14:01:57 +0000";
layers = (
{
layerId = "0C4AAAEE-E751-4C3F-8A9C-F8511AD320D7";
paths = (
{
closed = 1;
nodes = (
"308 619 OFFCURVE",
"301 641 OFFCURVE",
"284 659 CURVE SMOOTH",
"269 674 OFFCURVE",
"249 684 OFFCURVE",
"227 684 CURVE SMOOTH",
"205 684 OFFCURVE",
"186 674 OFFCURVE",
"170 659 CURVE SMOOTH",
"155 641 OFFCURVE",
"147 619 OFFCURVE",
"147 596 CURVE SMOOTH",
"147 572 OFFCURVE",
"155 549 OFFCURVE",
"170 529 CURVE SMOOTH",
"186 509 OFFCURVE",
"206 500 OFFCURVE",
"227 500 CURVE SMOOTH",
"249 500 OFFCURVE",
"269 509 OFFCURVE",
"284 529 CURVE SMOOTH",
"301 549 OFFCURVE",
"308 572 OFFCURVE",
"308 596 CURVE",
"308 596 LINE"
);
},
{
closed = 1;
nodes = (
"439 67 LINE",
"439 409 LINE SMOOTH",
"439 464 OFFCURVE",
"405 491 OFFCURVE",
"325 491 CURVE SMOOTH",
"133 491 LINE SMOOTH",
"55 491 OFFCURVE",
"20 464 OFFCURVE",
"20 409 CURVE SMOOTH",
"20 67 LINE SMOOTH",
"20 37 OFFCURVE",
"32 23 OFFCURVE",
"58 23 CURVE SMOOTH",
"82 23 OFFCURVE",
"94 37 OFFCURVE",
"94 67 CURVE SMOOTH",
"94 365 LINE",
"125 365 LINE",
"113 0 LINE",
"344 4 LINE",
"332 365 LINE",
"364 365 LINE",
"364 67 LINE SMOOTH",
"364 37 OFFCURVE",
"377 23 OFFCURVE",
"401 23 CURVE SMOOTH",
"426 23 OFFCURVE",
"439 37 OFFCURVE",
"439 67 CURVE"
);
}
);
width = 459;
}
);
unicode = 0070;
},
{
glyphname = q;
lastChange = "2023-10-13 15:09:38 +0000";
layers = (
{
layerId = "0C4AAAEE-E751-4C3F-8A9C-F8511AD320D7";
paths = (
{
closed = 1;
nodes = (
"451 534 OFFCURVE",
"426 570 OFFCURVE",
"375 597 CURVE",
"332 620 OFFCURVE",
"286 631 OFFCURVE",
"236 631 CURVE",
"185 631 OFFCURVE",
"140 620 OFFCURVE",
"98 597 CURVE",
"46 570 OFFCURVE",
"20 534 OFFCURVE",
"20 487 CURVE",
"20 445 LINE",
"164 445 LINE",
"164 487 LINE",
"164 508 OFFCURVE",
"170 524 OFFCURVE",
"185 538 CURVE",
"199 553 OFFCURVE",
"216 559 OFFCURVE",
"236 559 CURVE",
"255 559 OFFCURVE",
"272 553 OFFCURVE",
"287 538 CURVE",
"301 524 OFFCURVE",
"307 508 OFFCURVE",
"307 487 CURVE",
"307 451 OFFCURVE",
"288 424 OFFCURVE",
"247 406 CURVE",
"222 396 OFFCURVE",
"202 377 OFFCURVE",
"187 351 CURVE",
"171 326 OFFCURVE",
"164 299 OFFCURVE",
"164 272 CURVE",
"164 200 LINE",
"307 200 LINE",
"307 278 LINE",
"307 311 OFFCURVE",
"324 339 OFFCURVE",
"358 359 CURVE",
"420 397 OFFCURVE",
"451 439 OFFCURVE",
"451 487 CURVE SMOOTH",
"451 487 LINE SMOOTH"
);
},
{
closed = 1;
nodes = (
"307 77 OFFCURVE",
"301 93 OFFCURVE",
"287 107 CURVE",
"272 120 OFFCURVE",
"255 128 OFFCURVE",
"236 128 CURVE",
"216 128 OFFCURVE",
"199 120 OFFCURVE",
"185 107 CURVE",
"170 93 OFFCURVE",
"164 77 OFFCURVE",
"164 56 CURVE",
"164 36 OFFCURVE",
"170 18 OFFCURVE",
"185 5 CURVE",
"199 -9 OFFCURVE",
"216 -16 OFFCURVE",
"236 -16 CURVE",
"255 -16 OFFCURVE",
"272 -9 OFFCURVE",
"287 5 CURVE",
"301 18 OFFCURVE",
"307 36 OFFCURVE",
"307 56 CURVE SMOOTH",
"307 56 LINE SMOOTH"
);
}
);
width = 471;
}
);
note = q;
unicode = 0071;
},
{
glyphname = r;
lastChange = "2023-10-06 14:06:18 +0000";
layers = (
{
layerId = "0C4AAAEE-E751-4C3F-8A9C-F8511AD320D7";
paths = (
{
closed = 1;
nodes = (
"899 72 LINE",
"899 450 LINE",
"810 364 LINE",
"737 364 LINE",
"737 373 LINE",
"691 373 LINE",
"691 364 LINE",
"646 364 LINE",
"646 458 LINE",
"705 558 LINE SMOOTH",
"708 558 OFFCURVE",
"717 557 OFFCURVE",
"730 557 CURVE",
"742 556 OFFCURVE",
"753 556 OFFCURVE",
"762 556 CURVE",
"843 556 OFFCURVE",
"884 577 OFFCURVE",
"884 620 CURVE",
"884 640 OFFCURVE",
"874 656 OFFCURVE",
"854 669 CURVE",
"837 679 OFFCURVE",
"819 684 OFFCURVE",
"799 684 CURVE",
"708 684 LINE",
"688 684 OFFCURVE",
"670 679 OFFCURVE",
"653 669 CURVE",
"634 656 OFFCURVE",
"624 640 OFFCURVE",
"624 620 CURVE",
"624 599 OFFCURVE",
"636 583 OFFCURVE",
"659 570 CURVE SMOOTH",
"604 515 LINE",
"589 568 LINE",
"350 568 LINE",
"319 568 OFFCURVE",
"295 557 OFFCURVE",
"278 536 CURVE",
"211 451 LINE",
"45 451 LINE",
"20 402 LINE",
"20 32 LINE",
"46 32 LINE",
"54 0 LINE",
"185 0 LINE",
"192 32 LINE",
"326 32 LINE",
"350 0 LINE",
"590 0 LINE",
"618 53 LINE",
"646 53 LINE",
"646 140 LINE",
"691 140 LINE",
"691 128 LINE",
"737 128 LINE",
"737 140 LINE",
"816 140 LINE",
"899 72 LINE"
);
},
{
closed = 1;
nodes = (
"547 451 LINE",
"278 451 LINE SMOOTH",
"299 491 OFFCURVE",
"317 515 OFFCURVE",
"332 524 CURVE",
"345 530 OFFCURVE",
"373 533 OFFCURVE",
"418 533 CURVE",
"471 533 OFFCURVE",
"505 532 OFFCURVE",
"520 529 CURVE",
"534 527 OFFCURVE",
"543 501 OFFCURVE",
"547 451 CURVE SMOOTH"
);
},
{
closed = 1;
nodes = (
"511 96 LINE",
"133 96 LINE",
"133 390 LINE",
"511 390 LINE",
"511 96 LINE"
);
},
{
closed = 1;
nodes = (
"494 116 LINE",
"494 375 LINE",
"148 375 LINE",
"148 116 LINE",
"494 116 LINE"
);
},
{
closed = 1;
nodes = (
"428 277 LINE",
"206 277 LINE",
"206 338 LINE",
"428 338 LINE",
"428 277 LINE"
);
}
);
width = 919;
}
);
unicode = 0072;
},
{
glyphname = s;
lastChange = "2023-10-06 14:06:37 +0000";
layers = (
{
layerId = "0C4AAAEE-E751-4C3F-8A9C-F8511AD320D7";
paths = (
{
closed = 1;
nodes = (
"528 267 OFFCURVE",
"514 291 OFFCURVE",
"485 309 CURVE",
"461 325 OFFCURVE",
"433 334 OFFCURVE",
"400 336 CURVE SMOOTH",
"303 580 LINE SMOOTH",
"319 605 OFFCURVE",
"327 624 OFFCURVE",
"327 634 CURVE",
"327 668 OFFCURVE",
"299 684 OFFCURVE",
"247 684 CURVE",
"203 684 OFFCURVE",
"156 673 OFFCURVE",
"107 652 CURVE",
"49 627 OFFCURVE",
"20 597 OFFCURVE",
"20 565 CURVE",
"20 546 OFFCURVE",
"26 535 OFFCURVE",
"41 523 CURVE",
"46 519 OFFCURVE",
"60 513 OFFCURVE",
"82 504 CURVE SMOOTH",
"138 258 LINE SMOOTH",
"97 227 OFFCURVE",
"76 190 OFFCURVE",
"76 145 CURVE",
"76 81 OFFCURVE",
"123 49 OFFCURVE",
"217 49 CURVE",
"250 49 OFFCURVE",
"283 55 OFFCURVE",
"319 64 CURVE SMOOTH",
"427 -223 LINE",
"362 80 LINE SMOOTH",
"401 93 OFFCURVE",
"436 114 OFFCURVE",
"467 137 CURVE",
"509 171 OFFCURVE",
"528 203 OFFCURVE",
"528 237 CURVE SMOOTH",
"528 237 LINE SMOOTH"
);
},
{
closed = 1;
nodes = (
"392 318 OFFCURVE",
"392 317 OFFCURVE",
"392 315 CURVE",
"392 297 OFFCURVE",
"379 280 OFFCURVE",
"354 263 CURVE",
"340 254 OFFCURVE",
"325 246 OFFCURVE",
"310 242 CURVE SMOOTH",
"232 542 LINE",
"290 568 LINE",
"389 320 LINE",
"389 320 LINE SMOOTH"
);
}
);
width = 548;
}
);
note = s;
unicode = 0073;
},
{
glyphname = t;
lastChange = "2023-10-07 07:24:23 +0000";
layers = (
{
layerId = "0C4AAAEE-E751-4C3F-8A9C-F8511AD320D7";
paths = (
{
closed = 1;
nodes = (
"536 0 LINE",
"536 546 LINE",
"420 669 LINE",
"20 669 LINE",
"20 0 LINE",
"536 0 LINE"
);
},
{
closed = 1;
nodes = (
"521 17 LINE",
"35 17 LINE",
"35 656 LINE",
"420 656 LINE",
"420 546 LINE",
"521 546 LINE",
"521 17 LINE"
);
},
{
closed = 1;
nodes = (
"381 526 LINE",
"381 558 LINE",
"85 558 LINE",
"85 526 LINE",
"381 526 LINE"
);
},
{
closed = 1;
nodes = (
"480 442 LINE",
"480 474 LINE",
"85 474 LINE",
"85 442 LINE",
"480 442 LINE"
);
},
{
closed = 1;
nodes = (
"241 358 LINE",
"241 389 LINE",
"85 389 LINE",
"85 358 LINE",
"241 358 LINE"
);
},
{
closed = 1;
nodes = (
"480 273 LINE",
"480 305 LINE",
"85 305 LINE",
"85 273 LINE",
"480 273 LINE"
);
},
{
closed = 1;
nodes = (
"480 189 LINE",
"480 221 LINE",
"85 221 LINE",
"85 189 LINE",
"480 189 LINE"
);
},
{
closed = 1;
nodes = (
"480 105 LINE",
"480 137 LINE",
"85 137 LINE",
"85 105 LINE",
"480 105 LINE"
);
}
);
width = 556;
}
);
note = t;
unicode = 0074;
},
{
glyphname = w;
lastChange = "2023-10-06 14:04:20 +0000";
layers = (
{
layerId = "0C4AAAEE-E751-4C3F-8A9C-F8511AD320D7";
paths = (
{
closed = 1;
nodes = (
"899 -20 LINE",
"860 -89 LINE",
"754 -59 OFFCURVE",
"684 -39 OFFCURVE",
"648 -29 CURVE SMOOTH",
"608 -16 OFFCURVE",
"642 -33 OFFCURVE",
"549 4 CURVE",
"20 4 LINE",
"27 684 LINE",
"742 685 LINE",
"735 76 LINE",
"842 14 OFFCURVE",
"885 -12 OFFCURVE",
"899 -20 CURVE"
);
},
{
closed = 1;
nodes = (
"875 -38 LINE",
"591 84 LINE",
"576 53 LINE",
"858 -64 LINE",
"875 -38 LINE"
);
},
{
closed = 1;
nodes = (
"722 672 LINE",
"47 670 LINE",
"42 24 LINE",
"500 24 LINE",
"408 65 LINE",
"479 197 LINE",
"534 174 OFFCURVE",
"585 150 OFFCURVE",
"629 130 CURVE",
"696 96 LINE",
"723 82 OFFCURVE",
"741 71 OFFCURVE",
"763 60 CURVE",
"715 87 LINE",
"722 672 LINE"
);
},
{
closed = 1;
nodes = (
"465 204 LINE",
"394 70 LINE",
"353 86 OFFCURVE",
"311 107 OFFCURVE",
"264 133 CURVE",
"207 171 OFFCURVE",
"171 196 OFFCURVE",
"147 214 CURVE",
"185 282 LINE",
"245 272 OFFCURVE",
"293 262 OFFCURVE",
"329 251 CURVE",
"402 229 OFFCURVE",
"446 212 OFFCURVE",
"465 204 CURVE"
);
},
{
closed = 1;
nodes = (
"630 398 LINE",
"630 366 LINE",
"107 369 LINE",
"107 403 LINE",
"630 398 LINE"
);
},
{
closed = 1;
nodes = (
"543 490 LINE",
"543 455 LINE",
"107 461 LINE",
"107 495 LINE",
"543 490 LINE"
);
},
{
closed = 1;
nodes = (
"634 586 LINE",
"634 551 LINE",
"108 556 LINE",
"109 589 LINE",
"634 586 LINE"
);
},
{
closed = 1;
nodes = (
"174 278 LINE",
"145 224 LINE",
"94 248 LINE",
"93 253 OFFCURVE",
"91 260 OFFCURVE",
"88 262 CURVE",
"79 274 OFFCURVE",
"70 281 OFFCURVE",
"61 284 CURVE",
"64 289 LINE",
"137 259 LINE",
"138 263 LINE",
"65 293 LINE",
"68 297 LINE",
"86 293 OFFCURVE",
"97 291 OFFCURVE",
"105 293 CURVE",
"113 296 OFFCURVE",
"117 298 OFFCURVE",
"122 300 CURVE",
"174 278 LINE"
);
}
);
width = 919;
}
);
note = w;
unicode = 0077;
},
{
glyphname = x;
lastChange = "2023-10-06 14:03:40 +0000";
layers = (
{
layerId = "0C4AAAEE-E751-4C3F-8A9C-F8511AD320D7";
paths = (
{
closed = 1;
nodes = (
"799 0 LINE",
"799 684 LINE",
"20 684 LINE",
"20 0 LINE",
"799 0 LINE"
);
},
{
closed = 1;
nodes = (
"775 463 LINE",
"679 463 LINE",
"602 528 LINE",
"546 475 LINE",
"546 660 LINE",
"775 660 LINE",
"775 463 LINE"
);
},
{
closed = 1;
nodes = (
"775 379 LINE",
"696 448 LINE",
"775 448 LINE",
"775 379 LINE"
);
},
{
closed = 1;
nodes = (
"621 463 LINE",
"587 463 LINE",
"604 478 LINE",
"621 463 LINE"
);
},
{
closed = 1;
nodes = (
"775 235 LINE",
"546 235 LINE",
"546 424 LINE",
"572 448 LINE",
"639 448 LINE",
"775 332 LINE",
"775 235 LINE"
);
},
{
closed = 1;
nodes = (
"531 463 LINE",
"286 463 LINE",
"286 660 LINE",
"531 660 LINE",
"531 463 LINE"
);
},
{
closed = 1;
nodes = (
"775 24 LINE",
"546 24 LINE",
"546 221 LINE",
"775 221 LINE",
"775 24 LINE"
);
},
{
closed = 1;
nodes = (
"518 448 LINE",
"352 292 LINE",
"286 347 LINE",
"286 448 LINE",
"518 448 LINE"
);
},
{
closed = 1;
nodes = (
"531 235 LINE",
"286 235 LINE",
"286 297 LINE",
"353 242 LINE",
"531 410 LINE",
"531 235 LINE"
);
},
{
closed = 1;
nodes = (
"272 463 LINE",
"44 463 LINE",
"44 660 LINE",
"272 660 LINE",
"272 463 LINE"
);
},
{
closed = 1;
nodes = (
"531 24 LINE",
"286 24 LINE",
"286 221 LINE",
"531 221 LINE",
"531 24 LINE"
);
},
{
closed = 1;
nodes = (
"272 358 LINE",
"221 401 LINE",
"44 254 LINE",
"44 448 LINE",
"272 448 LINE",
"272 358 LINE"
);
},
{
closed = 1;
nodes = (
"272 235 LINE",
"79 235 LINE",
"221 352 LINE",
"272 309 LINE",
"272 235 LINE"
);
},
{
closed = 1;
nodes = (
"272 24 LINE",
"44 24 LINE",
"44 206 LINE",
"62 221 LINE",
"272 221 LINE",
"272 24 LINE"
);
}
);
width = 819;
}
);
note = x;
unicode = 0078;
},
{
glyphname = nonbreakinghyphen;
lastChange = "2025-07-03 17:31:59 +0000";
layers = (
{
layerId = "0C4AAAEE-E751-4C3F-8A9C-F8511AD320D7";
paths = (
{
closed = 1;
nodes = (
"120 235 LINE",
"379 235 LINE",
"379 293 LINE",
"120 293 LINE"
);
}
);
width = 499;
}
);
unicode = 2011;
},
